<svg enable-background="new 0 0 16 16.3" viewBox="0 0 16 16.3" xmlns="http://www.w3.org/2000/svg">
    <path d="m16 8.3c0-.7-.1-1.2-.2-1.7h-7.6v3h4.5c-.1.8-.6 1.9-1.7 2.6v.1l2.4 1.9h.2c1.5-1.3 2.4-3.4 2.4-5.9"
          fill="#4285f4"/>
    <path d="m8.2 16.3c2.2 0 4.1-.7 5.4-2l-2.6-2c-.7.5-1.6.8-2.8.8-2.2 0-4-1.4-4.6-3.4h-.1l-2.5 2v.1c1.2 2.7 4 4.5 7.2 4.5"
          fill="#34a853"/>
    <path d="m3.5 9.8c-.2-.5-.3-1.1-.3-1.6 0-.6.1-1.1.3-1.6v-.1l-2.5-2h-.1c-.6 1.1-.9 2.3-.9 3.7s.3 2.6.9 3.7z"
          fill="#fbbc05"/>
    <path d="m8.2 3.2c1.5 0 2.6.7 3.2 1.2l2.3-2.2c-1.5-1.4-3.3-2.2-5.5-2.2-3.2 0-6 1.8-7.3 4.5l2.6 2c.7-1.9 2.5-3.3 4.7-3.3"
          fill="#eb4335"/>
</svg>