<svg enable-background="new 0 0 24 24" viewBox="0 0 24 24" xmlns="http://www.w3.org/2000/svg">
    <path d="m21.5 9.8-2.9 2.9c-.8.8-2.1.8-2.9 0-.4-.4-.4-1 0-1.4s1-.4 1.4 0l3-2.9c1.2-1.2 1.2-3.2 0-4.4s-3.2-1.2-4.4 0l-2.9 2.9c.4.4.4 1 0 1.4s-1 .4-1.4 0c-.8-.8-.8-2.1 0-2.9l2.9-2.9c2-2 5.3-2 7.3 0s1.9 5.3-.1 7.3zm-10.2 5.9c-.4.4-.4 1 0 1.4l-2.9 2.9c-1.2 1.2-3.2 1.2-4.4 0s-1.2-3.2 0-4.4l3-2.9c.4.4 1 .4 1.4 0s.4-1 0-1.4c-.8-.8-2.1-.8-2.9 0l-2.9 2.9c-2 2-2 5.3 0 7.3s5.3 2 7.3 0l2.9-2.9c.8-.8.8-2.1 0-2.9-.5-.4-1.1-.4-1.5 0zm-3.7.7c.4.4 1 .4 1.4 0l7.4-7.4c.4-.4.4-1 0-1.4s-1-.4-1.4 0l-7.4 7.4c-.4.3-.4 1 0 1.4z"
          fill="#fff"/>
</svg>