<svg enable-background="new 0 0 20 20" viewBox="0 0 20 20" xmlns="http://www.w3.org/2000/svg" xmlns:xlink="http://www.w3.org/1999/xlink">
    <radialGradient id="a" cx="3.35999999999" cy="20.0283" gradientUnits="userSpaceOnUse" r="21.9992">
        <stop offset="0" stop-color="#09f"/>
        <stop offset=".6" stop-color="#a033ff"/>
        <stop offset=".9" stop-color="#ff5280"/>
        <stop offset="1" stop-color="#ff7061"/>
    </radialGradient>
    <path d="m10 0c-5.6 0-10 4.1-10 9.7 0 2.9 1.2 5.4 3.1 7.2.2.1.3.3.3.6l.1 1.8c0 .4.4.8.8.8.1 0 .2 0 .3-.1l2-.9c.1-.1.3-.1.5-.1.9.3 1.9.4 2.9.4 5.6 0 10-4.1 10-9.7s-4.4-9.7-10-9.7z"
          fill="url(#a)"/>
    <path d="m4 12.5 2.9-4.7c.5-.6 1.4-.8 2.1-.4 0 0 .1 0 .1.1l2.3 1.8c.2.2.5.2.7 0l3.2-2.4c.4-.3 1 .2.7.6l-2.9 4.7c-.4.7-1.4.9-2.1.5 0 0-.1 0-.1-.1l-2.3-1.8c-.2-.2-.5-.2-.7 0l-3.2 2.4c-.4.3-1-.2-.7-.7z"
          fill="#fff"/>
</svg>