<svg enable-background="new 0 0 24 24" viewBox="0 0 24 24" xmlns="http://www.w3.org/2000/svg">
    <path d="m12 1c-6.1 0-11 4.9-11 11s4.9 11 11 11 11-4.9 11-11-4.9-11-11-11zm0 20c-5 0-9-4-9-9s4-9 9-9 9 4 9 9-4 9-9 9zm.6-13.3c1 0 2 .5 2.6 1.4.3.4 1 .5 1.4.2s.5-1 .2-1.4c-1-1.3-2.5-2.1-4.2-2.2-2.3.1-4.4 1.6-5.1 3.8h-1.5c-.6 0-1 .4-1 1s.4 1 1 1h1v.5s0 .3 0 .5h-1c-.6 0-1 .4-1 1s.4 1 1 1h1.5c.7 2.2 2.8 3.8 5.1 3.8 1.7 0 3.2-.8 4.2-2.2.4-.4.4-1 .1-1.4-.4-.4-1-.4-1.4-.1-.1.1-.2.2-.2.3-.6.8-1.6 1.4-2.6 1.4-1.2 0-2.4-.8-2.9-1.9h2.2c.6 0 1-.4 1-1s-.4-1-1-1h-2.9c-.1-.1-.1-.2-.1-.4s0-.3.1-.5h2.9c.6 0 1-.4 1-1s-.4-1-1-1h-2.3c.5-1.1 1.7-1.8 2.9-1.8z"
          fill="#000"/>
</svg>