<svg enable-background="new 0 0 24 24" viewBox="0 0 24 24" xmlns="http://www.w3.org/2000/svg">
    <path d="m19.9 12.7c-.3-.4-.3-.9 0-1.3l1.3-1.4c.3-.3.3-.8.1-1.2l-2-3.5c-.2-.4-.6-.6-1.1-.5l-1.9.4c-.5.1-1-.2-1.1-.7l-.6-1.8c-.1-.4-.5-.7-1-.7h-4c-.4 0-.9.3-1 .7l-.5 1.8c-.2.5-.7.8-1.2.7l-1.9-.4c-.4-.1-.8.1-1 .5l-2 3.4c-.2.4-.2.9.1 1.2l1.3 1.4c.3.4.3.9 0 1.3l-1.3 1.4c-.3.3-.3.8-.1 1.2l2 3.5c.2.4.6.6 1.1.5l1.9-.4c.5-.1 1 .2 1.2.7l.6 1.8c.1.4.6.7 1 .7h4c.4 0 .8-.3.9-.7l.6-1.8c.2-.5.7-.8 1.2-.7l1.9.4c.4.1.9-.1 1.1-.5l2-3.5c.2-.4.2-.8-.1-1.2zm-1.5 1.3.8.9-1.3 2.2-1.2-.2c-1.5-.3-3 .6-3.4 2l-.4 1.1h-2.6l-.3-1.1c-.5-1.4-2-2.3-3.4-2l-1.2.2-1.3-2.2.8-.9c1-1.1 1-2.9 0-4l-.8-.9 1.3-2.2 1.2.2c1.5.3 3-.6 3.5-2l.3-1.1h2.6l.4 1.1c.5 1.4 2 2.3 3.4 2l1.2-.2 1.3 2.2-.9.9c-1 1.2-1 2.9 0 4zm-6.8-6c-2.2 0-4 1.8-4 4s1.8 4 4 4 4-1.8 4-4-1.8-4-4-4zm0 6c-1.1 0-2-.9-2-2s.9-2 2-2 2 .9 2 2-.9 2-2 2z"
          fill="#000"/>
</svg>