<svg width="36" height="36" viewBox="0 0 36 36" fill="none" xmlns="http://www.w3.org/2000/svg">
<rect width="36" height="36" rx="8.4" fill="black"/>
<rect x="1.47656" y="1.47656" width="33.0469" height="33.0469" rx="7.2" fill="white"/>
<path d="M4.99219 8.59219C4.99219 6.60396 6.60396 4.99219 8.59219 4.99219H17.3835V17.3835H4.99219V8.59219Z" fill="#849BEB"/>
<path d="M4.99219 18.6165H17.3835V31.0078H8.59219C6.60396 31.0078 4.99219 29.396 4.99219 27.4078V18.6165Z" fill="#ADCC30"/>
<path d="M18.6165 4.99219H27.4078C29.396 4.99219 31.0078 6.60396 31.0078 8.59219V17.3835H18.6165V4.99219Z" fill="#927EE3"/>
<path d="M18.6165 18.6165H31.0078V27.4078C31.0078 29.396 29.396 31.0078 27.4078 31.0078H18.6165V18.6165Z" fill="#EB8DBA"/>
<rect x="3.72656" y="13.8" width="28.5469" height="8.71875" fill="white"/>
<rect x="6.41724" y="15.621" width="5.97693" height="5.97693" rx="1.08" transform="rotate(-7 6.41724 15.621)" fill="#FC9434"/>
<rect x="6.41724" y="15.621" width="5.97693" height="5.97693" rx="1.08" transform="rotate(-7 6.41724 15.621)" fill="black" fill-opacity="0.2"/>
<rect x="6.41333" y="15.3858" width="5.97693" height="5.97693" rx="1.08" transform="rotate(-7 6.41333 15.3858)" fill="#FC9434"/>
<path d="M8.73941 19.6562L8.23121 19.7186L7.86157 16.7081L8.65402 16.6108L9.7949 18.3899L10.4715 16.3877L11.2596 16.2909L11.6293 19.3014L11.1211 19.3638L10.8323 17.0122L10.038 19.2301L9.75371 19.265L8.45068 17.3047L8.73941 19.6562Z" fill="white"/>
<rect x="22.916" y="15.6215" width="5.97693" height="5.97693" rx="1.08" transform="rotate(-7 22.916 15.6215)" fill="#FC9434"/>
<rect x="22.916" y="15.6215" width="5.97693" height="5.97693" rx="1.08" transform="rotate(-7 22.916 15.6215)" fill="black" fill-opacity="0.2"/>
<rect x="22.9194" y="15.3854" width="5.97693" height="5.97693" rx="1.08" transform="rotate(-7 22.9194 15.3854)" fill="#FC9434"/>
<path d="M26.3526 16.9361L26.6651 19.4814L26.1569 19.5438L25.8444 16.9985L24.9314 17.1106L24.8743 16.6454L27.2086 16.3588L27.2657 16.824L26.3526 16.9361Z" fill="white"/>
<rect x="15.4512" y="14.846" width="5.97693" height="5.97693" rx="1.08" transform="rotate(8 15.4512 14.846)" fill="#FC9434"/>
<rect x="15.4512" y="14.846" width="5.97693" height="5.97693" rx="1.08" transform="rotate(8 15.4512 14.846)" fill="black" fill-opacity="0.2"/>
<rect x="15.4839" y="14.6143" width="5.97693" height="5.97693" rx="1.08" transform="rotate(8 15.4839 14.6143)" fill="#FC9434"/>
<path d="M18.902 17.3098C18.7284 17.0693 18.4927 16.9281 18.1948 16.8862C17.8968 16.8443 17.6299 16.9149 17.3938 17.0979C17.1606 17.2813 17.0227 17.5248 16.98 17.8284C16.9378 18.1292 17.0034 18.3999 17.177 18.6405C17.3535 18.8814 17.5907 19.0229 17.8886 19.0647C18.1865 19.1066 18.452 19.0358 18.6852 18.8524C18.9213 18.6694 19.0604 18.4275 19.1027 18.1268C19.1454 17.8231 19.0785 17.5508 18.902 17.3098ZM19.0114 19.2444C18.6662 19.4968 18.2702 19.5916 17.8234 19.5288C17.3765 19.466 17.022 19.2657 16.7598 18.928C16.498 18.5874 16.3981 18.1965 16.4601 17.7554C16.5225 17.3114 16.7263 16.9632 17.0714 16.7108C17.4169 16.4555 17.8131 16.3593 18.26 16.4221C18.7069 16.4849 19.0612 16.6866 19.323 17.0272C19.5851 17.365 19.685 17.7558 19.6226 18.1998C19.5606 18.641 19.3569 18.9892 19.0114 19.2444Z" fill="white"/>
<rect x="1.47656" y="1.47656" width="33.0469" height="33.0469" rx="7.2" fill="white"/>
<rect x="4.99219" y="4.99219" width="12.3913" height="12.3913" rx="3.6" fill="#849BEB"/>
<rect x="4.99219" y="18.6165" width="12.3913" height="12.3913" rx="3.6" fill="#ADCC30"/>
<rect x="18.6165" y="4.99219" width="12.3913" height="12.3913" rx="3.6" fill="#927EE3"/>
<rect x="18.6165" y="18.6165" width="12.3913" height="12.3913" rx="3.6" fill="#EB8DBA"/>
</svg>
