<svg enable-background="new 0 0 24 24" viewBox="0 0 24 24" xmlns="http://www.w3.org/2000/svg">
    <path d="m10 13h-6c-.6 0-1 .4-1 1v6c0 .6.4 1 1 1h6c.6 0 1-.4 1-1v-6c0-.6-.4-1-1-1zm-1 6h-4v-4h4zm11-16h-6c-.6 0-1 .4-1 1v6c0 .6.4 1 1 1h6c.6 0 1-.4 1-1v-6c0-.6-.4-1-1-1zm-1 6h-4v-4h4zm1 7h-2v-2c0-.6-.4-1-1-1s-1 .4-1 1v2h-2c-.6 0-1 .4-1 1s.4 1 1 1h2v2c0 .6.4 1 1 1s1-.4 1-1v-2h2c.6 0 1-.4 1-1s-.4-1-1-1zm-10-13h-6c-.6 0-1 .4-1 1v6c0 .6.4 1 1 1h6c.6 0 1-.4 1-1v-6c0-.6-.4-1-1-1zm-1 6h-4v-4h4z"
          fill="#000"/>
</svg>