<svg enable-background="new 0 0 24 24" viewBox="0 0 24 24" xmlns="http://www.w3.org/2000/svg">
    <path d="m22.5 18.8-1-3.9-3.2-11.5c-.1-.5-.7-.8-1.2-.7l-3.9 1c-.2-.2-.5-.3-.7-.3h-10c-.6 0-1 .4-1 1v16c0 .6.4 1 1 1h10c.6 0 1-.4 1-1v-8l2.2 8.2c.1.4.5.8 1 .7h.3l4.8-1.3c.3-.1.5-.2.6-.5.1-.2.1-.4.1-.7zm-16 .6h-3v-2h3zm0-4h-3v-6h3zm0-8h-3v-2h3zm5 12h-3v-2h3zm0-4h-3v-6h3zm0-8h-3v-2h3zm2.2-1.8 2.9-.8.5 1.9-2.9.8zm2.6 9.7-1.6-5.8 2.9-.8 1.5 5.8zm1 3.8-.5-1.9 2.9-.8.5 1.9z"
          fill="#000"/>
</svg>