<svg enable-background="new 0 0 24 24" viewBox="0 0 24 24" xmlns="http://www.w3.org/2000/svg">
    <path d="m12 19c.6 0 1-.4 1-1s-.4-1-1-1-1 .4-1 1 .4 1 1 1zm5 0c.6 0 1-.4 1-1s-.4-1-1-1-1 .4-1 1 .4 1 1 1zm0-4c.6 0 1-.4 1-1s-.4-1-1-1-1 .4-1 1 .4 1 1 1zm-5 0c.6 0 1-.4 1-1s-.4-1-1-1-1 .4-1 1 .4 1 1 1zm7-12h-1v-1c0-.6-.4-1-1-1s-1 .4-1 1v1h-8v-1c0-.6-.4-1-1-1s-1 .4-1 1v1h-1c-1.7 0-3 1.3-3 3v14c0 1.7 1.3 3 3 3h14c1.7 0 3-1.3 3-3v-14c0-1.7-1.3-3-3-3zm1 17c0 .6-.4 1-1 1h-14c-.6 0-1-.4-1-1v-9h16zm0-11h-16v-3c0-.6.4-1 1-1h1v1c0 .6.4 1 1 1s1-.4 1-1v-1h8v1c0 .6.4 1 1 1s1-.4 1-1v-1h1c.6 0 1 .4 1 1zm-13 6c.6 0 1-.4 1-1s-.4-1-1-1-1 .4-1 1 .4 1 1 1zm0 4c.6 0 1-.4 1-1s-.4-1-1-1-1 .4-1 1 .4 1 1 1z"
          fill="#000"/>
</svg>