<svg enable-background="new 0 0 24 24" viewBox="0 0 24 24" xmlns="http://www.w3.org/2000/svg">
    <g fill="#000">
        <path d="m17 4h1v1c0 .6.4 1 1 1s1-.4 1-1v-1h1c.6 0 1-.4 1-1s-.4-1-1-1h-1v-1c0-.6-.4-1-1-1s-1 .4-1 1v1h-1c-.6 0-1 .4-1 1s.4 1 1 1zm3.6 4c-.5.1-.9.6-.8 1.2 1 4.9-2.1 9.6-7 10.6s-9.6-2.1-10.6-7 2.1-9.6 7-10.6c1.2-.2 2.4-.2 3.6 0 .6.1 1.1-.2 1.2-.8s-.2-1.1-.8-1.2c-.7-.2-1.5-.2-2.2-.2-6.1 0-11 4.9-11 11s4.9 11 11 11 11-4.9 11-11c0-.7-.1-1.5-.2-2.2-.1-.5-.6-.9-1.2-.8z"/>
        <path d="m11 4.4c-.6 0-1.1.5-1.1 1.1v4.8l-2.7 1.3c-.5.3-.8.9-.5 1.5.3.5.9.8 1.5.5l3.3-1.6c.4-.2.6-.6.6-1v-5.5c0-.6-.5-1.1-1.1-1.1z"/>
    </g>
</svg>