<svg enable-background="new 0 0 24 24" viewBox="0 0 24 24" xmlns="http://www.w3.org/2000/svg">
    <path d="m17.1 2.8c-1.9-1.5-4.3-2.1-6.7-1.7-3.2.7-5.6 3.2-6.3 6.4-.4 2.4.2 4.8 1.7 6.7.8.7 1.2 1.7 1.2 2.8v3c0 1.7 1.3 3 3 3h4c1.7 0 3-1.3 3-3v-2.8c0-1.2.5-2.3 1.2-3.2 2.8-3.4 2.3-8.4-1.1-11.2zm-2.1 17.2c0 .6-.4 1-1 1h-4c-.6 0-1-.4-1-1v-1h6zm1.7-7.2c-1 1.2-1.6 2.7-1.7 4.2h-2v-3c0-.6-.4-1-1-1s-1 .4-1 1v3h-2c0-1.5-.6-3-1.6-4.2-2.1-2.5-1.8-6.3.8-8.5.8-.6 1.7-1.1 2.6-1.3 3.2-.7 6.4 1.4 7.1 4.7.1.5.1.9.1 1.3 0 1.4-.5 2.7-1.3 3.8z"
          fill="#000"/>
</svg>